<svg id="Layer_1" data-name="Layer 1" xmlns="http://www.w3.org/2000/svg" viewBox="0 0 768.17 489.82"><defs><style>.cls-1{fill:#cac0d9;}.cls-2{fill:#b8cce4;}.cls-3{fill:#6f4896;}.cls-4{fill:#04afef;}</style></defs><title>opinions</title><path class="cls-1" d="M923.55,311.88h-7c-32.81,0-65.63-.22-98.44.1-14.9.14-25.57-10.81-25.3-25,0.56-28.81.16-57.63,0.17-86.45,0-13.92,9.81-23.67,23.81-23.67,57.3,0,114.6.28,171.9-.21,13.36-.11,25,12.09,24.63,24.23-0.93,29.12-.3,58.29-0.3,87.44,0,14.09-9.15,23.35-23.24,23.56a15.09,15.09,0,0,1-2.5,0c-8.74-1.35-16,2.26-23.34,6.37-14.91,8.34-30.09,16.22-45.17,24.26a39.5,39.5,0,0,1-4,1.52Z" transform="translate(-245.16 -146.58)"/><path class="cls-2" d="M576,358c-0.75-5.77-1.41-10.74-2.05-15.71-1-7.69-1.82-15.4-3.06-23.05a6.75,6.75,0,0,0-3.06-4.33c-19.31-10-34.16-24.62-43.25-44.3-9.34-20.22-10.47-41.2-1.89-62.16,10.78-26.33,30.2-43.52,56.42-53.9,16.08-6.37,32.7-9.2,49.66-7.53,22.28,2.19,42.75,9.73,60.35,24.3,13.8,11.43,24,25.3,29.2,42.34,8.23,26.81,2.71,51.09-13.94,73.53-9.16,12.34-20.92,21.25-34.07,28.24A95.48,95.48,0,0,1,631,326.83c-7.22.42-14.5-.24-21.7,0.31-2.45.19-5.13,2.19-7,4.06-7.93,7.93-15.6,16.13-23.38,24.22C578.29,356.12,577.52,356.71,576,358Z" transform="translate(-245.16 -146.58)"/><path class="cls-3" d="M490.61,636.4c0.71-49.58,20.2-88.93,59.7-117.36,8.71,5.46,16.33,11.06,24.66,15.29,25.88,13.13,52.8,13.88,79.87,4.35a83.61,83.61,0,0,0,30-17.89c2-1.9,3.52-2.24,6-.47a133.73,133.73,0,0,1,37,39.65c10,16.57,16.76,34.42,19.18,53.73,0.93,7.38,1.53,14.8,2.34,22.7H490.61Z" transform="translate(-245.16 -146.58)"/><path class="cls-4" d="M429.52,183.26c0.09,1.81.25,3.43,0.25,5q0,55.24,0,110.48c0,7,0,7-7.15,7H328.14c-6.21,0-6.05,0-5.68,6,0.66,10.8,1.11,21.6,1.71,33.68-2.12-1.53-3.53-2.43-4.8-3.49-13.42-11.21-26.75-22.53-40.29-33.59a12.79,12.79,0,0,0-7.12-2.53c-7.32-.31-14.66-0.19-22,0-3.26.07-4.82-.76-4.81-4.45q0.15-57,0-114c0-3.44,1.13-4.58,4.64-4.57q88,0.14,176,.09C426.9,182.9,428,183.11,429.52,183.26Z" transform="translate(-245.16 -146.58)"/><path class="cls-3" d="M543.85,514a143.88,143.88,0,0,0-45.21,52.78,157.37,157.37,0,0,0-7.93,19.67c-1.17,3.34-2.75,4.49-6.35,4.48-40.31-.14-80.61-0.09-120.92-0.1H306.13c1.15-10.18,1.83-19.87,3.42-29.41,3.71-22.24,13.24-42,26.77-59.89,8-10.66,18.06-19.25,28.49-27.42,2.09-1.64,3.55-1.07,5.57.61,15.57,13,33.15,21.15,53.59,23.45,28.78,3.23,54-4.56,76.21-22.75,2.67-2.18,4.7-2.65,8-.14C522.21,486,534.29,498.47,543.85,514Z" transform="translate(-245.16 -146.58)"/><path class="cls-3" d="M735.43,472.83c16.44,13.88,34.38,22.74,55.49,25.27a101.36,101.36,0,0,0,44.6-4.33,91,91,0,0,0,33.21-19.1c2-1.79,3.13-1.93,5.45-.33,21.29,14.7,36.55,34.24,46.7,57.84,7.93,18.45,12.41,37.65,10.88,58.65h-5.26q-85.74,0-171.49.07c-3.66,0-5.46-.76-6.69-4.61-9.13-28.61-26-51.76-49.86-70-1.08-.83-2-3.71-1.37-4.66a131,131,0,0,1,36.14-37.74A15.17,15.17,0,0,1,735.43,472.83Z" transform="translate(-245.16 -146.58)"/><path class="cls-3" d="M879.75,398.35c0,42.22-34.88,75.37-73.67,76-48,.81-79.42-37.08-78.9-76.8,0.56-42.39,34.58-76.69,78.57-75.43C846.51,323.33,879.06,356,879.75,398.35Z" transform="translate(-245.16 -146.58)"/><path class="cls-3" d="M695.84,443.8c-0.23,43.05-34.17,77.55-77.87,76.52-42.21-1-74.37-33.66-74.57-75.84-0.2-42.84,33.36-75.91,75.16-76.32C662.21,367.73,694.92,401.87,695.84,443.8Z" transform="translate(-245.16 -146.58)"/><path class="cls-3" d="M436,473.86c-42.41,1.59-76.55-34.54-76.46-75.63,0.09-42.08,34.67-76.41,76.48-76.11S512,356.93,511.85,399C511.74,440.84,474.74,475.9,436,473.86Z" transform="translate(-245.16 -146.58)"/></svg>