<svg id="Layer_1" data-name="Layer 1" xmlns="http://www.w3.org/2000/svg" xmlns:xlink="http://www.w3.org/1999/xlink" viewBox="0 0 511 159"><defs><style>.cls-1{fill:url(#linear-gradient);}.cls-2{fill:#fbfafb;}.cls-3{fill:#f9f8f9;}.cls-4{fill:#f7f6f8;}.cls-5{fill:#f8f7f9;}.cls-6{fill:#f5f4f6;}.cls-7{fill:#f9f8fa;}.cls-8{fill:#f6f5f7;}</style><linearGradient id="linear-gradient" y1="79.5" x2="511" y2="79.5" gradientUnits="userSpaceOnUse"><stop offset="0" stop-color="#6a4293"/><stop offset="1" stop-color="#784c99"/></linearGradient></defs><title>sharedops-logo-background</title><rect class="cls-1" width="511" height="159" rx="12" ry="12"/><path class="cls-2" d="M482.72,354.72l-28.84,25c0-6.16,0-11.36,0-16.56,0-1.6,1.29-2.26,2.25-3.1,10.3-9,20.69-17.85,30.88-26.94,2.24-2,3.52-2,5.73,0q14.92,13.31,30.18,26.23a7.52,7.52,0,0,1,3,6.82c-0.23,4.1-.06,8.22-0.06,13.52L497,354.74c0,3.64,0,6.06,0,8.48,0,19.83-.23,39.65,0,59.48,0,4.23-1.12,5.11-5.21,5.11q-200.69-.18-401.39-0.1c-4.83,0-9.67-.12-14.49.05-2.44.09-3-.79-3.1-3.12C72.22,412,72.15,412,84.89,412q195.94,0,391.89.1c4.66,0,6.19-.88,6.08-5.88C482.5,389.54,482.72,372.89,482.72,354.72Z" transform="translate(-44 -300)"/><path class="cls-3" d="M93.24,384.77c-6.94.06-13.21-1.41-17.45-7.58a11.73,11.73,0,0,1-2.26-6.49,4.06,4.06,0,0,1,2.74-4.31A4.14,4.14,0,0,1,81.52,368c1,1.53,1.55,3.31,2.46,4.88,3.35,5.78,12.86,6.62,17.22,1.57,3.07-3.56,1.92-8-3-9.94-4-1.56-8.26-2.41-12.37-3.67-4.59-1.4-8.68-3.6-10.62-8.3a12.58,12.58,0,0,1,6-16.2,24.82,24.82,0,0,1,22.59-.28,11.82,11.82,0,0,1,6.46,7.26c0.93,2.92.48,5.41-2.46,6.71s-4.58-.36-6.05-2.77c-3.79-6.21-7.39-7.77-13-5.92-2.49.82-4.69,2.07-4.92,5s2,4.52,4.4,5.33c3.77,1.26,7.68,2.11,11.48,3.27,10.07,3.07,14,8.16,13,16.6-0.89,7.3-7.88,12.74-17,13.23C94.91,384.81,94.08,384.77,93.24,384.77Z" transform="translate(-44 -300)"/><path class="cls-4" d="M366.14,380.09c0,4.66.1,8.63,0,12.59-0.1,2.95-1.16,5.24-4.74,5.1s-4-2.67-4.06-5.22q-0.17-19.73-.05-39.46c0-2.39.57-4.78,3.5-5.3,3.56-.63,5,1.64,5.74,5.42,4.08-4.26,8.46-6.3,13.79-5.38a14.69,14.69,0,0,1,8.93,5.06c5.86,6.88,5.73,20.07-.22,26.94C383.56,386.09,376.21,386.38,366.14,380.09ZM384,365.85c0-3.21-.62-6.78-3.77-9.32-3.36-2.71-7.69-2.27-10.75,1-3.67,3.92-3.79,13-.22,17.2,2.73,3.19,7.08,4,10.32,1.72C383,374,384,370.4,384,365.85Z" transform="translate(-44 -300)"/><path class="cls-5" d="M298.78,352.88c0-5,0-8.92,0-12.87,0-3.14.35-6.34,4.61-6.22,3.89,0.11,4.26,3.1,4.26,6.07q0,19.47,0,38.95c0,2.84-.56,5.5-4,5.9s-4.56-2-5.15-5.13c-3.13,2.37-6,4.86-10.09,5.2-9.37.77-15.91-5.5-16.9-16.81-0.64-7.28.58-14.22,7.57-18.23C285.76,345.91,292.19,347.21,298.78,352.88Zm-0.71,12.86a12.18,12.18,0,0,0-1.34-6.18c-2.08-4-6.27-5.8-10-4.19-4.9,2.11-5.91,6.44-5.85,11.14,0.06,4.5,1.05,8.66,5.87,10.58C293,379.56,298.13,374.65,298.07,365.75Z" transform="translate(-44 -300)"/><path class="cls-6" d="M129.79,352.45c4.07-3.34,7.54-5,11.81-4.76,6.35,0.33,10.56,4,11.39,10.34,0.91,7,.46,14,0.34,21,0,2.92-.85,5.83-4.75,5.76-4.1-.08-4.71-2.92-4.7-6.21,0-5.33.12-10.67,0-16-0.12-3.83-.89-7.49-5.83-7.74a7.78,7.78,0,0,0-8,7.35c-0.38,5.31-.17,10.66-0.22,16,0,3.4-.5,6.56-4.9,6.6s-4.62-3.24-4.64-6.29q-0.14-19.24,0-38.49c0-3.09.6-6.27,4.8-6.2s4.65,3.12,4.71,6.29C129.85,343.85,129.79,347.64,129.79,352.45Z" transform="translate(-44 -300)"/><path class="cls-4" d="M178.91,347.74c11.84,0,15.42,3.63,15.54,15.49,0.06,5.46-.57,11,1.28,16.32a3.6,3.6,0,0,1-1.87,4.65c-2.06,1.11-4.16.81-5.33-1.05-2-3.25-3.83-2.87-6.65-.85-3.32,2.39-7.39,2.85-11.46,2.44-5.51-.57-9.5-4.49-9.83-9.57s2.72-8.89,8.24-10.34c4.33-1.13,8.72-2,13-3.16,1.27-.34,3.25-0.25,3-2.51a4,4,0,0,0-2.78-3.76c-4.44-1.31-8.71-1.06-11.82,2.75-2.13,2.61-4.43,4-7,1.45s-0.67-5.48,1.3-7.42C168.49,348.32,173.6,347.52,178.91,347.74Zm-3,31.05a11.11,11.11,0,0,0,6.66-2.7c2.22-2.12,3.25-5.17,2.18-7.67s-3.68,0-5.6.07a22.43,22.43,0,0,0-4.8,1c-2.54.71-4.84,2-4.34,5.06S173,378.61,175.95,378.8Z" transform="translate(-44 -300)"/><path class="cls-7" d="M251.33,367.77a58.62,58.62,0,0,1-7,0c-4.48-.54-4.13,2-3.18,4.78,2,5.78,8,7.9,13.34,4.66a26.4,26.4,0,0,0,3.85-3.15c1.76-1.58,3.63-3.61,6-1.46,2.5,2.3.7,4.78-.89,6.59-5.07,5.76-11.79,6.47-18.79,5.22s-11.72-5.63-13.23-12.63c-1.57-7.3-.9-14.47,5.11-19.77,5.78-5.09,12.75-5.42,19.71-3,5.59,2,8.89,6.21,9.61,12.26,0.5,4.18-1.39,6.34-5.54,6.47-3,.09-6,0-9,0v0Zm-2.45-5c1.65,0,3.32-.12,5,0,2.89,0.26,3.47-.71,2.29-3.35-2.33-5.19-9.94-6.37-13.64-1.94-1,1.25-2.27,2.81-1.56,4.44s2.62,0.63,4,.79A34.47,34.47,0,0,0,248.88,362.75Z" transform="translate(-44 -300)"/><path class="cls-7" d="M351.08,366.32c0,11.25-7.15,18.44-18.28,18.45s-18.44-7.29-18.57-18.34c-0.13-11.22,7.39-18.75,18.68-18.69C344,347.8,351.1,355,351.08,366.32Zm-27.3,0c0,8.6,5.77,13.52,12.35,10.61,4.51-2,5.45-6,5.56-10.24,0.11-4.43-.66-8.69-5.22-11C329.8,352.42,323.75,357.49,323.78,366.32Z" transform="translate(-44 -300)"/><path class="cls-4" d="M414.25,384.75a17.66,17.66,0,0,1-8.58-1.36c-2.47-1-4.77-2.43-6-5-1.19-2.39-1.8-4.87.94-6.58,2.58-1.61,4.31-.17,5.72,2.06,2.62,4.15,6.36,5.69,11.12,4.39,1.79-.49,3.49-1.33,3.59-3.6s-1.34-3.37-3.16-4c-3.62-1.18-7.38-2-10.94-3.31-4.4-1.65-8.1-4.18-7.89-9.67,0.17-4.4,3.67-8.26,9-9.42,6.17-1.35,12.33-1.2,17.58,2.91,2.38,1.86,4.78,4.63,1.75,7.52-2.45,2.34-5.22,1.21-7.21-1.42s-4.8-4.13-8.24-3.45c-1.77.35-3.73,1-4,3.18s1.63,3.09,3.38,3.66c4.41,1.43,8.94,2.53,13.26,4.19,3.47,1.33,5.8,4.06,5.83,8a10.21,10.21,0,0,1-5.33,9.54A19.37,19.37,0,0,1,414.25,384.75Z" transform="translate(-44 -300)"/><path class="cls-8" d="M212.59,352c5-4.54,9-5.36,13.31-3,2.08,1.14,3.5,2.75,2.81,5.23-0.74,2.65-2.94,2.83-5.24,2.49-7.89-1.13-9.57,0-10.34,8.14-0.44,4.62-.23,9.3-0.28,14,0,3.12-.78,5.76-4.5,5.93s-4.83-2.52-4.88-5.57c-0.13-8.31-.17-16.63,0-24.94,0-2.57,0-5.62,3.49-6.4C210.09,347.12,211.92,348.86,212.59,352Z" transform="translate(-44 -300)"/></svg>